<svg width="24" height="9" viewBox="0 0 24 9" fill="none" xmlns="http://www.w3.org/2000/svg">
<path d="M5.91703 8.82812L5.65303 6.56012H2.65303L1.48903 8.82812H0.0970312L4.50103 0.452125H6.18103L7.23703 8.82812H5.91703ZM5.14903 1.65212H5.06503L3.19303 5.43212H5.54503L5.14903 1.65212ZM11.4156 8.97213C10.9916 8.97213 10.6036 8.90013 10.2516 8.75612C9.89956 8.61212 9.59556 8.40012 9.33956 8.12012C9.08356 7.83212 8.88356 7.48012 8.73956 7.06413C8.59556 6.64012 8.52356 6.15212 8.52356 5.60012C8.52356 4.87212 8.62356 4.18812 8.82356 3.54812C9.03156 2.90012 9.31556 2.33612 9.67556 1.85612C10.0436 1.37612 10.4796 1.00012 10.9836 0.728125C11.4956 0.448125 12.0556 0.308125 12.6636 0.308125C14.0956 0.308125 15.0116 0.964125 15.4116 2.27612L14.2476 2.78012C14.1276 2.37212 13.9356 2.05212 13.6716 1.82012C13.4156 1.58812 13.0436 1.47212 12.5556 1.47212C11.9476 1.47212 11.4316 1.68412 11.0076 2.10812C10.5916 2.53212 10.3116 3.10012 10.1676 3.81212L9.89156 5.16812C9.85956 5.30412 9.83956 5.43212 9.83156 5.55212C9.82356 5.66412 9.81956 5.77212 9.81956 5.87612C9.81956 6.47612 9.96356 6.94812 10.2516 7.29212C10.5476 7.63612 10.9676 7.80812 11.5116 7.80812C11.7756 7.80812 12.0116 7.77612 12.2196 7.71212C12.4276 7.64012 12.6156 7.54412 12.7836 7.42412C12.9516 7.29612 13.1036 7.14412 13.2396 6.96812C13.3756 6.79212 13.5036 6.59612 13.6236 6.38012L14.7036 6.89612C14.3356 7.60812 13.8796 8.13212 13.3356 8.46812C12.7996 8.80412 12.1596 8.97213 11.4156 8.97213ZM21.3421 5.18012H17.6701L16.9261 8.82812H15.6301L17.3101 0.452125H18.6061L17.8981 4.02812H21.5701L22.2781 0.452125H23.5741L21.8941 8.82812H20.5981L21.3421 5.18012Z" fill="#767676"/>
</svg>
