<svg width="53" height="15" viewBox="0 0 53 15" fill="none" xmlns="http://www.w3.org/2000/svg">
<path d="M1.80273 6.35547C1.25045 6.35547 0.802734 6.80318 0.802734 7.35547C0.802734 7.90775 1.25045 8.35547 1.80273 8.35547V6.35547ZM52.5098 8.06258C52.9004 7.67205 52.9004 7.03889 52.5098 6.64836L46.1459 0.284401C45.7554 -0.106123 45.1222 -0.106123 44.7317 0.284401C44.3411 0.674925 44.3411 1.30809 44.7317 1.69861L50.3885 7.35547L44.7317 13.0123C44.3411 13.4028 44.3411 14.036 44.7317 14.4265C45.1222 14.8171 45.7554 14.8171 46.1459 14.4265L52.5098 8.06258ZM1.80273 8.35547H51.8027V6.35547H1.80273V8.35547Z" fill="#767676"/>
</svg>
