<svg width="83" height="15" viewBox="0 0 83 15" fill="none" xmlns="http://www.w3.org/2000/svg">
<path d="M1.80273 6.35547C1.25045 6.35547 0.802734 6.80318 0.802734 7.35547C0.802734 7.90775 1.25045 8.35547 1.80273 8.35547V6.35547ZM82.5098 8.06258C82.9004 7.67205 82.9004 7.03889 82.5098 6.64836L76.1459 0.284401C75.7554 -0.106123 75.1222 -0.106123 74.7317 0.284401C74.3411 0.674925 74.3411 1.30809 74.7317 1.69861L80.3885 7.35547L74.7317 13.0123C74.3411 13.4028 74.3411 14.036 74.7317 14.4265C75.1222 14.8171 75.7554 14.8171 76.1459 14.4265L82.5098 8.06258ZM1.80273 8.35547H81.8027V6.35547H1.80273V8.35547Z" fill="#767676"/>
</svg>
