<svg width="16" height="16" viewBox="0 0 16 17" fill="none" xmlns="http://www.w3.org/2000/svg">
<path d="M8 0.5C3.58737 0.5 0 4.08737 0 8.5C0 12.9126 3.58737 16.5 8 16.5C12.4126 16.5 16 12.9126 16 8.5C16 4.08737 12.4126 0.5 8 0.5ZM12.6484 6.84948L7.51158 11.9863C7.39368 12.1042 7.2421 12.1716 7.09052 12.1716C6.93894 12.1716 6.78736 12.1042 6.66947 11.9863L3.84 9.15685C3.60421 8.92106 3.60421 8.53368 3.84 8.29789C4.07579 8.0621 4.46316 8.0621 4.69895 8.29789L7.09052 10.6895L11.8063 5.97368C12.0421 5.73789 12.4295 5.73789 12.6653 5.97368C12.8842 6.22632 12.8842 6.61369 12.6484 6.84948Z" fill="#3FB977"/>
</svg>
