<svg xmlns="http://www.w3.org/2000/svg" width="25" height="15" fill="none" viewBox="0 0 25 15"><path fill="#22AA82" fill-rule="evenodd" d="M17.7762 2.6211H7.14017C5.46159 2.6211 4.37659 2.62469 3.57619 2.73109C2.82491 2.83093 2.58789 2.99254 2.45577 3.12222C2.44802 3.12983 2.44035 3.13744 2.43274 3.14523C2.30305 3.27735 2.14152 3.51439 2.04165 4.26566C1.93527 5.06603 1.93164 6.15103 1.93164 7.82963C1.93164 9.50823 1.93527 10.5932 2.04165 11.3936C2.14152 12.1449 2.30305 12.3819 2.43274 12.514C2.44035 12.5218 2.44802 12.5294 2.45577 12.537C2.58789 12.6667 2.82491 12.8283 3.57619 12.9282C4.37659 13.0346 5.46159 13.0382 7.14018 13.0382H17.7762C19.4548 13.0382 20.5398 13.0346 21.3402 12.9282C22.0915 12.8283 22.3285 12.6667 22.4606 12.537C22.4663 12.5314 22.472 12.5258 22.4776 12.5202C22.4797 12.5181 22.4817 12.516 22.4836 12.514C22.6134 12.3819 22.7749 12.1449 22.8747 11.3936C22.9811 10.5932 22.9847 9.50823 22.9847 7.82963C22.9847 6.15103 22.9811 5.06603 22.8747 4.26566C22.7749 3.51439 22.6134 3.27735 22.4836 3.14523C22.4761 3.13744 22.4684 3.12983 22.4606 3.12222C22.3285 2.99254 22.0915 2.83093 21.3402 2.73109C20.5398 2.62469 19.4548 2.6211 17.7762 2.6211ZM1.18385 1.91935C0.181641 2.94039 0.181641 4.57016 0.181641 7.82963C0.181641 11.0891 0.181641 12.7189 1.18385 13.7399C1.19906 13.7554 1.2144 13.7708 1.22989 13.7859C2.25093 14.7882 3.88068 14.7882 7.14018 14.7882H17.7762C21.0357 14.7882 22.6654 14.7882 23.6865 13.7859C23.702 13.7708 23.7174 13.7554 23.7326 13.7399C24.7347 12.7189 24.7347 11.0891 24.7347 7.82963C24.7347 4.57016 24.7347 2.94039 23.7326 1.91935C23.7174 1.90386 23.702 1.88851 23.6865 1.8733C22.6654 0.871094 21.0357 0.871094 17.7762 0.871094H7.14017C3.88068 0.871094 2.25093 0.871094 1.22989 1.8733C1.2144 1.88851 1.19906 1.90386 1.18385 1.91935Z" clip-rule="evenodd"/><path fill="#22AA82" fill-rule="evenodd" d="M3.70898 10.0156C3.70898 9.53263 4.10098 9.14062 4.58398 9.14062H14.209C14.692 9.14062 15.084 9.53263 15.084 10.0156C15.084 10.4986 14.692 10.8906 14.209 10.8906H4.58398C4.10098 10.8906 3.70898 10.4986 3.70898 10.0156Z" clip-rule="evenodd"/><path fill="#22AA82" fill-rule="evenodd" d="M3.70898 5.64062C3.70898 5.15763 4.10098 4.76562 4.58398 4.76562H8.08398C8.56698 4.76562 8.95898 5.15763 8.95898 5.64062C8.95898 6.12362 8.56698 6.51562 8.08398 6.51562H4.58398C4.10098 6.51562 3.70898 6.12362 3.70898 5.64062Z" clip-rule="evenodd"/><path fill="#22AA82" fill-rule="evenodd" d="M15.959 5.64062C15.959 5.15763 16.351 4.76562 16.834 4.76562H20.334C20.817 4.76562 21.209 5.15763 21.209 5.64062C21.209 6.12362 20.817 6.51562 20.334 6.51562H16.834C16.351 6.51562 15.959 6.12362 15.959 5.64062Z" clip-rule="evenodd"/><path fill="#22AA82" fill-rule="evenodd" d="M17.5098 9.95312C17.5098 9.47013 17.9018 9.07812 18.3848 9.07812H20.1348C20.6178 9.07812 21.0098 9.47013 21.0098 9.95312C21.0098 10.4361 20.6178 10.8281 20.1348 10.8281H18.3848C17.9018 10.8281 17.5098 10.4361 17.5098 9.95312Z" clip-rule="evenodd"/></svg>