<svg xmlns="http://www.w3.org/2000/svg" width="29" height="29" fill="none" viewBox="0 0 29 29"><rect width="28" height="28" fill="#fff" transform="translate(0.292969 0.234375)"/><path fill="#c8132c" fill-rule="evenodd" d="M19.6102 9.02735H8.97416C7.29558 9.02735 6.21058 9.03094 5.41017 9.13734C4.6589 9.23718 4.42188 9.39879 4.28975 9.52847C4.28201 9.53608 4.27433 9.54369 4.26673 9.55148C4.13704 9.6836 3.9755 9.92064 3.87564 10.6719C3.76926 11.4723 3.76562 12.5573 3.76562 14.2359C3.76562 15.9145 3.76926 16.9995 3.87564 17.7998C3.9755 18.5511 4.13704 18.7882 4.26673 18.9203C4.27433 18.9281 4.28201 18.9357 4.28975 18.9433C4.42188 19.073 4.6589 19.2346 5.41018 19.3344C6.21058 19.4408 7.29558 19.4444 8.97417 19.4444H19.6102C21.2888 19.4444 22.3738 19.4408 23.1741 19.3344C23.9255 19.2346 24.1624 19.073 24.2946 18.9433C24.3003 18.9377 24.306 18.9321 24.3116 18.9264C24.3137 18.9244 24.3157 18.9223 24.3176 18.9203C24.4473 18.7882 24.6089 18.5511 24.7087 17.7998C24.8151 16.9995 24.8187 15.9145 24.8187 14.2359C24.8187 12.5573 24.8151 11.4723 24.7087 10.6719C24.6089 9.92064 24.4473 9.6836 24.3176 9.55148C24.3101 9.54369 24.3024 9.53608 24.2946 9.52847C24.1624 9.39879 23.9255 9.23718 23.1741 9.13734C22.3738 9.03094 21.2888 9.02735 19.6102 9.02735ZM3.01783 8.3256C2.01562 9.34664 2.01562 10.9764 2.01562 14.2359C2.01562 17.4953 2.01562 19.1251 3.01783 20.1462C3.03304 20.1616 3.04839 20.177 3.06387 20.1922C4.08491 21.1944 5.71466 21.1944 8.97417 21.1944H19.6102C22.8697 21.1944 24.4994 21.1944 25.5205 20.1922C25.5359 20.177 25.5513 20.1616 25.5666 20.1462C26.5687 19.1251 26.5687 17.4953 26.5687 14.2359C26.5687 10.9764 26.5687 9.34664 25.5666 8.3256C25.5513 8.31011 25.5359 8.29476 25.5205 8.27955C24.4994 7.27734 22.8697 7.27734 19.6102 7.27734H8.97416C5.71466 7.27734 4.08491 7.27734 3.06387 8.27955C3.04839 8.29476 3.03304 8.31011 3.01783 8.3256Z" clip-rule="evenodd"/><path fill="#c8132c" fill-rule="evenodd" d="M5.54297 16.4219C5.54297 15.9389 5.93497 15.5469 6.41797 15.5469H16.043C16.526 15.5469 16.918 15.9389 16.918 16.4219C16.918 16.9049 16.526 17.2969 16.043 17.2969H6.41797C5.93497 17.2969 5.54297 16.9049 5.54297 16.4219Z" clip-rule="evenodd"/><path fill="#c8132c" fill-rule="evenodd" d="M5.54297 12.0469C5.54297 11.5639 5.93497 11.1719 6.41797 11.1719H9.91797C10.401 11.1719 10.793 11.5639 10.793 12.0469C10.793 12.5299 10.401 12.9219 9.91797 12.9219H6.41797C5.93497 12.9219 5.54297 12.5299 5.54297 12.0469Z" clip-rule="evenodd"/><path fill="#c8132c" fill-rule="evenodd" d="M17.793 12.0469C17.793 11.5639 18.185 11.1719 18.668 11.1719H22.168C22.651 11.1719 23.043 11.5639 23.043 12.0469C23.043 12.5299 22.651 12.9219 22.168 12.9219H18.668C18.185 12.9219 17.793 12.5299 17.793 12.0469Z" clip-rule="evenodd"/><path fill="#c8132c" fill-rule="evenodd" d="M19.3438 16.3594C19.3438 15.8764 19.7358 15.4844 20.2188 15.4844H21.9688C22.4518 15.4844 22.8438 15.8764 22.8438 16.3594C22.8438 16.8424 22.4518 17.2344 21.9688 17.2344H20.2188C19.7358 17.2344 19.3438 16.8424 19.3438 16.3594Z" clip-rule="evenodd"/></svg>