<svg xmlns="http://www.w3.org/2000/svg" width="20" height="17" fill="none" viewBox="0 0 20 17"><rect width="18.842" height="16" fill="#fff" transform="translate(0.371094 0.234375)"/><path fill="#EC3750" fill-rule="evenodd" d="M9.95539 1.99943C9.90191 1.97517 9.84741 1.95325 9.79202 1.93374V0.234375C10.0935 0.234375 10.411 0.359849 10.6316 0.456691C10.8817 0.566164 11.2009 0.731217 11.5385 0.924059C12.3697 1.41037 13.1784 1.93414 13.9621 2.49374C15.7727 3.77206 16.1078 4.02385 17.9663 5.53374C18.0445 5.61193 18.1065 5.70475 18.1489 5.8069C18.1912 5.90905 18.2129 6.01854 18.2129 6.12911C18.2129 6.23968 18.1912 6.34917 18.1489 6.45132C18.1065 6.55348 18.0445 6.6463 17.9663 6.72448C17.8882 6.80267 17.7953 6.86469 17.6932 6.907C17.591 6.94931 17.4815 6.97109 17.371 6.97109C17.2604 6.97109 17.1509 6.94931 17.0488 6.907C16.9466 6.86469 16.8538 6.80267 16.7756 6.72448C14.8447 5.28701 14.7604 5.11774 12.9903 3.86974C12.2512 3.34051 11.488 2.84566 10.7032 2.3868C10.4612 2.24405 10.2116 2.11473 9.95539 1.99943ZM9.62865 1.99943C9.70444 1.96574 9.75749 1.94553 9.79202 1.93374V0.234375C9.49055 0.234375 9.17307 0.359849 8.95244 0.456691C8.70234 0.566164 8.38318 0.731217 8.04549 0.924059C7.21432 1.41037 6.40563 1.93414 5.62191 2.49374C3.81307 3.77206 3.47623 4.02385 1.6177 5.53374C1.53952 5.61193 1.4775 5.70475 1.43519 5.8069C1.39287 5.90905 1.37109 6.01854 1.37109 6.12911C1.37109 6.23968 1.39287 6.34917 1.43519 6.45132C1.4775 6.55348 1.53952 6.6463 1.6177 6.72448C1.69589 6.80267 1.78871 6.86469 1.89086 6.907C1.99301 6.94931 2.1025 6.97109 2.21307 6.97109C2.32364 6.97109 2.43313 6.94931 2.53528 6.907C2.63744 6.86469 2.73026 6.80267 2.80844 6.72448C4.74023 5.28701 4.82444 5.11774 6.5937 3.86974C7.33287 3.34051 8.09607 2.84566 8.88086 2.3868C9.18823 2.2108 9.42823 2.08616 9.62865 1.99943ZM2.21307 15.3923C2.21307 15.1689 2.30179 14.9547 2.45972 14.7968C2.61764 14.6389 2.83184 14.5502 3.05518 14.5502H16.5289C16.7522 14.5502 16.9664 14.6389 17.1243 14.7968C17.2822 14.9547 17.371 15.1689 17.371 15.3923C17.371 15.6156 17.2822 15.8298 17.1243 15.9877C16.9664 16.1457 16.7522 16.2344 16.5289 16.2344H3.05518C2.83184 16.2344 2.61764 16.1457 2.45972 15.9877C2.30179 15.8298 2.21307 15.6156 2.21307 15.3923Z" clip-rule="evenodd"/><path fill="#EC3750" fill-rule="evenodd" d="M9.79482 13.7039C9.57148 13.7039 9.35729 13.6152 9.19936 13.4573C9.04144 13.2994 8.95271 13.0852 8.95271 12.8618V6.96711C8.95271 6.74377 9.04144 6.52957 9.19936 6.37165C9.35729 6.21372 9.57148 6.125 9.79482 6.125C10.0182 6.125 10.2324 6.21372 10.3903 6.37165C10.5482 6.52957 10.6369 6.74377 10.6369 6.96711V12.8618C10.6369 13.0852 10.5482 13.2994 10.3903 13.4573C10.2324 13.6152 10.0182 13.7039 9.79482 13.7039ZM14.0053 13.7039C13.782 13.7039 13.5678 13.6152 13.4099 13.4573C13.252 13.2994 13.1632 13.0852 13.1632 12.8618V6.96711C13.1632 6.74377 13.252 6.52957 13.4099 6.37165C13.5678 6.21372 13.782 6.125 14.0053 6.125C14.2287 6.125 14.4429 6.21372 14.6008 6.37165C14.7587 6.52957 14.8475 6.74377 14.8475 6.96711V12.8618C14.8475 13.0852 14.7587 13.2994 14.6008 13.4573C14.4429 13.6152 14.2287 13.7039 14.0053 13.7039ZM5.58429 13.7039C5.36095 13.7039 5.14676 13.6152 4.98883 13.4573C4.83091 13.2994 4.74219 13.0852 4.74219 12.8618V6.96711C4.74219 6.74377 4.83091 6.52957 4.98883 6.37165C5.14676 6.21372 5.36095 6.125 5.58429 6.125C5.80763 6.125 6.02183 6.21372 6.17975 6.37165C6.33768 6.52957 6.4264 6.74377 6.4264 6.96711V12.8618C6.4264 13.0852 6.33768 13.2994 6.17975 13.4573C6.02183 13.6152 5.80763 13.7039 5.58429 13.7039Z" clip-rule="evenodd"/></svg>