<svg xmlns="http://www.w3.org/2000/svg" width="23" height="22" fill="none" viewBox="0 0 23 22"><path fill="#c8132c" fill-rule="evenodd" d="M11.9739 2.81663C11.9037 2.78479 11.8322 2.75602 11.7595 2.73042V0.5C12.1552 0.5 12.5719 0.664684 12.8614 0.791789C13.1897 0.935474 13.6086 1.1521 14.0518 1.40521C15.1427 2.0435 16.2041 2.73094 17.2328 3.46542C19.6091 5.14321 20.049 5.47368 22.4883 7.45542C22.5909 7.55804 22.6723 7.67986 22.7278 7.81394C22.7834 7.94802 22.812 8.09172 22.812 8.23684C22.812 8.38197 22.7834 8.52567 22.7278 8.65974C22.6723 8.79382 22.5909 8.91564 22.4883 9.01826C22.3857 9.12088 22.2638 9.20228 22.1298 9.25782C21.9957 9.31335 21.852 9.34194 21.7069 9.34194C21.5617 9.34194 21.418 9.31335 21.284 9.25782C21.1499 9.20228 21.0281 9.12088 20.9254 9.01826C18.3911 7.13158 18.2805 6.90942 15.9573 5.27142C14.9871 4.5768 13.9854 3.92732 12.9554 3.32505C12.6378 3.1377 12.3102 2.96797 11.9739 2.81663ZM11.5451 2.81663C11.6445 2.77242 11.7142 2.74589 11.7595 2.73042V0.5C11.3638 0.5 10.9471 0.664684 10.6575 0.791789C10.3293 0.935474 9.91039 1.1521 9.46718 1.40521C8.37626 2.0435 7.31485 2.73094 6.28623 3.46542C3.91213 5.14321 3.47002 5.47368 1.03071 7.45542C0.928089 7.55804 0.846688 7.67986 0.791152 7.81394C0.735615 7.94802 0.707031 8.09172 0.707031 8.23684C0.707031 8.38197 0.735615 8.52567 0.791152 8.65974C0.846688 8.79382 0.928088 8.91564 1.03071 9.01826C1.13332 9.12088 1.25515 9.20228 1.38923 9.25782C1.5233 9.31335 1.667 9.34194 1.81213 9.34194C1.95725 9.34194 2.10095 9.31335 2.23503 9.25782C2.36911 9.20228 2.49093 9.12088 2.59355 9.01826C5.12902 7.13158 5.23955 6.90942 7.56171 5.27142C8.53186 4.5768 9.53356 3.92732 10.5636 3.32505C10.967 3.09405 11.282 2.93047 11.5451 2.81663ZM1.81213 20.3947C1.81213 20.1016 1.92857 19.8205 2.13585 19.6132C2.34313 19.4059 2.62426 19.2895 2.91739 19.2895H20.6016C20.8947 19.2895 21.1759 19.4059 21.3831 19.6132C21.5904 19.8205 21.7069 20.1016 21.7069 20.3947C21.7069 20.6879 21.5904 20.969 21.3831 21.1763C21.1759 21.3836 20.8947 21.5 20.6016 21.5H2.91739C2.62426 21.5 2.34313 21.3836 2.13585 21.1763C1.92857 20.969 1.81213 20.6879 1.81213 20.3947Z" clip-rule="evenodd"/><path fill="#c8132c" fill-rule="evenodd" d="M11.7624 18.17C11.4693 18.17 11.1882 18.0536 10.9809 17.8463C10.7736 17.639 10.6572 17.3579 10.6572 17.0648V9.32792C10.6572 9.03479 10.7736 8.75366 10.9809 8.54638C11.1882 8.3391 11.4693 8.22266 11.7624 8.22266C12.0556 8.22266 12.3367 8.3391 12.544 8.54638C12.7513 8.75366 12.8677 9.03479 12.8677 9.32792V17.0648C12.8677 17.3579 12.7513 17.639 12.544 17.8463C12.3367 18.0536 12.0556 18.17 11.7624 18.17ZM17.2888 18.17C16.9956 18.17 16.7145 18.0536 16.5072 17.8463C16.2999 17.639 16.1835 17.3579 16.1835 17.0648V9.32792C16.1835 9.03479 16.2999 8.75366 16.5072 8.54638C16.7145 8.3391 16.9956 8.22266 17.2888 8.22266C17.5819 8.22266 17.863 8.3391 18.0703 8.54638C18.2776 8.75366 18.394 9.03479 18.394 9.32792V17.0648C18.394 17.3579 18.2776 17.639 18.0703 17.8463C17.863 18.0536 17.5819 18.17 17.2888 18.17ZM6.23612 18.17C5.94299 18.17 5.66186 18.0536 5.45458 17.8463C5.24731 17.639 5.13086 17.3579 5.13086 17.0648V9.32792C5.13086 9.03479 5.24731 8.75366 5.45458 8.54638C5.66186 8.3391 5.94299 8.22266 6.23612 8.22266C6.52926 8.22266 6.81038 8.3391 7.01766 8.54638C7.22494 8.75366 7.34139 9.03479 7.34139 9.32792V17.0648C7.34139 17.3579 7.22494 17.639 7.01766 17.8463C6.81038 18.0536 6.52926 18.17 6.23612 18.17Z" clip-rule="evenodd"/></svg>