<svg width="21" height="20" viewBox="0 0 21 20" fill="none" xmlns="http://www.w3.org/2000/svg">
<path fill-rule="evenodd" clip-rule="evenodd" d="M10.6528 2.42412C10.5893 2.39532 10.5246 2.36929 10.4588 2.34612V0.328125C10.8168 0.328125 11.1938 0.477125 11.4558 0.592125C11.7528 0.722125 12.1318 0.918125 12.5328 1.14712C13.5199 1.72462 14.4802 2.3466 15.4108 3.01112C17.5608 4.52912 17.9588 4.82813 20.1658 6.62113C20.2587 6.71397 20.3323 6.82419 20.3826 6.9455C20.4328 7.06681 20.4587 7.19682 20.4587 7.32812C20.4587 7.45943 20.4328 7.58944 20.3826 7.71075C20.3323 7.83206 20.2587 7.94228 20.1658 8.03512C20.073 8.12797 19.9628 8.20162 19.8415 8.25187C19.7202 8.30211 19.5901 8.32797 19.4588 8.32797C19.3275 8.32797 19.1975 8.30211 19.0762 8.25187C18.9549 8.20162 18.8447 8.12797 18.7518 8.03512C16.4588 6.32812 16.3588 6.12713 14.2568 4.64513C13.3791 4.01666 12.4728 3.42903 11.5408 2.88412C11.2535 2.71461 10.957 2.56105 10.6528 2.42412ZM10.2648 2.42412C10.3548 2.38412 10.4178 2.36012 10.4588 2.34612V0.328125C10.1008 0.328125 9.72383 0.477125 9.46183 0.592125C9.16483 0.722125 8.78583 0.918125 8.38483 1.14712C7.39781 1.72462 6.43749 2.3466 5.50683 3.01112C3.35883 4.52912 2.95883 4.82813 0.751833 6.62113C0.658989 6.71397 0.58534 6.82419 0.535093 6.9455C0.484846 7.06681 0.458984 7.19682 0.458984 7.32812C0.458984 7.45943 0.484846 7.58944 0.535093 7.71075C0.58534 7.83206 0.658988 7.94228 0.751833 8.03512C0.844678 8.12797 0.9549 8.20162 1.07621 8.25187C1.19751 8.30211 1.32753 8.32797 1.45883 8.32797C1.59014 8.32797 1.72015 8.30211 1.84146 8.25187C1.96277 8.20162 2.07299 8.12797 2.16583 8.03512C4.45983 6.32812 4.55983 6.12713 6.66083 4.64513C7.53859 4.01666 8.44489 3.42903 9.37683 2.88412C9.74183 2.67512 10.0268 2.52712 10.2648 2.42412ZM1.45883 18.3281C1.45883 18.0629 1.56419 17.8086 1.75173 17.621C1.93926 17.4335 2.19362 17.3281 2.45883 17.3281H18.4588C18.7241 17.3281 18.9784 17.4335 19.1659 17.621C19.3535 17.8086 19.4588 18.0629 19.4588 18.3281C19.4588 18.5933 19.3535 18.8477 19.1659 19.0352C18.9784 19.2228 18.7241 19.3281 18.4588 19.3281H2.45883C2.19362 19.3281 1.93926 19.2228 1.75173 19.0352C1.56419 18.8477 1.45883 18.5933 1.45883 18.3281Z" fill="#EC3750"/>
<path fill-rule="evenodd" clip-rule="evenodd" d="M10.4629 16.3242C10.1977 16.3242 9.94332 16.2189 9.75578 16.0313C9.56825 15.8438 9.46289 15.5894 9.46289 15.3242V8.32422C9.46289 8.059 9.56825 7.80465 9.75578 7.61711C9.94332 7.42958 10.1977 7.32422 10.4629 7.32422C10.7281 7.32422 10.9825 7.42958 11.17 7.61711C11.3575 7.80465 11.4629 8.059 11.4629 8.32422V15.3242C11.4629 15.5894 11.3575 15.8438 11.17 16.0313C10.9825 16.2189 10.7281 16.3242 10.4629 16.3242ZM15.4629 16.3242C15.1977 16.3242 14.9433 16.2189 14.7558 16.0313C14.5682 15.8438 14.4629 15.5894 14.4629 15.3242V8.32422C14.4629 8.059 14.5682 7.80465 14.7558 7.61711C14.9433 7.42958 15.1977 7.32422 15.4629 7.32422C15.7281 7.32422 15.9825 7.42958 16.17 7.61711C16.3575 7.80465 16.4629 8.059 16.4629 8.32422V15.3242C16.4629 15.5894 16.3575 15.8438 16.17 16.0313C15.9825 16.2189 15.7281 16.3242 15.4629 16.3242ZM5.46289 16.3242C5.19767 16.3242 4.94332 16.2189 4.75578 16.0313C4.56825 15.8438 4.46289 15.5894 4.46289 15.3242V8.32422C4.46289 8.059 4.56825 7.80465 4.75578 7.61711C4.94332 7.42958 5.19767 7.32422 5.46289 7.32422C5.72811 7.32422 5.98246 7.42958 6.17 7.61711C6.35753 7.80465 6.46289 8.059 6.46289 8.32422V15.3242C6.46289 15.5894 6.35753 15.8438 6.17 16.0313C5.98246 16.2189 5.72811 16.3242 5.46289 16.3242Z" fill="#EC3750"/>
</svg>
