<svg xmlns="http://www.w3.org/2000/svg" width="18" height="20" fill="none" viewBox="0 0 18 20"><rect width="17.432" height="19" fill="#fff" transform="translate(0.0761719 0.734375)"/><path fill="#003087" d="M4.84603 15.9328H1.52104C1.45672 15.9328 1.39317 15.9188 1.33477 15.8919C1.27636 15.865 1.22449 15.8257 1.18273 15.7768C1.14097 15.7279 1.11031 15.6705 1.09286 15.6086C1.07541 15.5467 1.07159 15.4817 1.08166 15.4182L3.32366 1.19671C3.34401 1.0679 3.40964 0.950579 3.50876 0.865832C3.60787 0.781085 3.73396 0.734473 3.86437 0.734375H9.58179C12.2869 0.734375 14.2558 2.70404 14.2099 5.08854C14.2051 5.28646 14.1885 5.48438 14.1576 5.67992C13.9611 6.94751 13.318 8.10313 12.3443 8.93827C11.3707 9.77342 10.1307 10.2331 8.84791 10.2344H6.21324C6.083 10.2343 5.95702 10.2808 5.85803 10.3654C5.75903 10.45 5.69352 10.5673 5.67333 10.6959L5.41604 12.3236L4.85791 15.8647L4.84603 15.9328ZM14.9588 5.59679C14.9509 5.66567 14.9509 5.73533 14.9406 5.80342C14.72 7.25978 13.9835 8.58842 12.8653 9.54721C11.7471 10.506 10.3217 11.0311 8.8487 11.0268H6.42224L6.1982 12.4479L5.64008 15.989L5.52291 16.726H4.72254L4.32908 19.2198C4.31901 19.2833 4.32283 19.3483 4.34028 19.4102C4.35772 19.4721 4.38839 19.5295 4.43015 19.5784C4.47191 19.6273 4.52378 19.6665 4.58218 19.6935C4.64059 19.7204 4.70414 19.7344 4.76845 19.7344H7.62795C7.89712 19.7344 8.1267 19.5373 8.16866 19.2713L8.92233 14.4967C8.94268 14.3679 9.00831 14.2506 9.10742 14.1658C9.20654 14.0811 9.33263 14.0345 9.46303 14.0344H11.1461C12.4288 14.0333 13.6688 13.5738 14.6425 12.7388C15.6161 11.9038 16.2593 10.7482 16.4558 9.48071C16.6981 7.93696 16.0861 6.51671 14.9588 5.59679Z"/></svg>