<svg xmlns="http://www.w3.org/2000/svg" width="16" height="16" fill="none" viewBox="0 0 16 16"><path fill="#767676" fill-rule="evenodd" d="M10.9758 5.98759C10.9758 7.67956 10.7034 8.24053 10.5033 8.45668C10.3404 8.63362 9.82069 9.00358 7.95983 9.00358C6.09896 9.00358 5.5792 8.63362 5.41634 8.45668C5.21628 8.24053 4.94384 7.67956 4.94384 5.98759C4.94384 4.32176 6.29399 2.9716 7.95983 2.9716C9.62566 2.9716 10.9758 4.32176 10.9758 5.98759ZM11.8153 9.98578C12.6989 9.1775 12.9865 7.87057 12.9865 5.98759C12.9865 3.21187 10.7355 0.960938 7.95983 0.960938C5.18411 0.960938 2.93318 3.21187 2.93318 5.98759C2.93318 7.87057 3.2207 9.1775 4.10439 9.98578C2.43152 10.9016 1.11956 12.3946 0.435937 14.1971C0.311276 14.5269 0.282121 14.9089 0.488214 15.1954C1.05924 15.9886 2.17114 15.0838 2.62957 14.2202C3.64193 12.3131 5.64958 11.0142 7.95983 11.0142C10.2701 11.0142 12.2777 12.3131 13.2901 14.2202C13.7485 15.0838 14.8604 15.9886 15.4314 15.1954C15.6375 14.9089 15.6084 14.5269 15.4837 14.1971C14.8001 12.3946 13.4881 10.9016 11.8153 9.98578Z" clip-rule="evenodd"/></svg>