<svg xmlns="http://www.w3.org/2000/svg" width="17" height="20" fill="none" viewBox="0 0 17 20"><path fill="#003087" d="M4.51205 15.5265H1.18705C1.12274 15.5265 1.05919 15.5126 1.00078 15.4857C0.94238 15.4587 0.89051 15.4194 0.848748 15.3705C0.806985 15.3216 0.776323 15.2642 0.758875 15.2023C0.741426 15.1404 0.737605 15.0755 0.747676 15.012L2.98968 0.790458C3.01003 0.661651 3.07566 0.544329 3.17477 0.459582C3.27389 0.374835 3.39998 0.328223 3.53038 0.328125H9.2478C11.9529 0.328125 13.9218 2.29779 13.8759 4.68229C13.8711 4.88021 13.8545 5.07813 13.8236 5.27367C13.6271 6.54126 12.984 7.69688 12.0104 8.53202C11.0367 9.36717 9.79667 9.82685 8.51393 9.82812H5.87926C5.74902 9.82806 5.62304 9.87453 5.52404 9.95916C5.42504 10.0438 5.35954 10.161 5.33934 10.2897L5.08205 11.9173L4.52393 15.4585L4.51205 15.5265ZM14.6248 5.19054C14.6169 5.25942 14.6169 5.32908 14.6066 5.39717C14.386 6.85353 13.6495 8.18217 12.5313 9.14096C11.4131 10.0997 9.98768 10.6249 8.51472 10.6206H6.08826L5.86422 12.0416L5.30609 15.5827L5.18893 16.3198H4.38855L3.99509 18.8135C3.98502 18.8771 3.98884 18.942 4.00629 19.0039C4.02374 19.0658 4.0544 19.1232 4.09616 19.1721C4.13793 19.221 4.1898 19.2603 4.2482 19.2872C4.3066 19.3142 4.37015 19.3281 4.43447 19.3281H7.29397C7.56313 19.3281 7.79272 19.131 7.83468 18.865L8.58834 14.0905C8.60869 13.9617 8.67433 13.8443 8.77344 13.7596C8.87255 13.6748 8.99865 13.6282 9.12905 13.6281H10.8121C12.0948 13.627 13.3348 13.1675 14.3085 12.3325C15.2821 11.4975 15.9253 10.342 16.1218 9.07446C16.3641 7.53071 15.7521 6.11046 14.6248 5.19054Z"/></svg>