<svg width="48" height="48" viewBox="0 0 48 48" fill="none" xmlns="http://www.w3.org/2000/svg">
<path fill-rule="evenodd" clip-rule="evenodd" d="M21.375 13.875C20.39 13.8751 19.4146 14.0693 18.5046 14.4463C17.5946 14.8233 16.7678 15.3759 16.0714 16.0725C14.6649 17.4793 13.8748 19.3872 13.875 21.3765C13.8752 23.3659 14.6656 25.2736 16.0724 26.6802C17.4793 28.0867 19.3872 28.8767 21.3765 28.8765C23.3658 28.8763 25.2736 28.0859 26.6801 26.6791C28.0866 25.2723 28.8767 23.3644 28.8765 21.375C28.8763 19.3857 28.0859 17.478 26.6791 16.0714C25.2722 14.6649 23.3643 13.8748 21.375 13.875ZM10.875 21.375C10.8753 19.7678 11.2445 18.1821 11.9542 16.7401C12.6639 15.2981 13.6952 14.0382 14.9685 13.0576C16.2419 12.077 17.7234 11.4018 19.2989 11.084C20.8744 10.7662 22.5018 10.8143 24.0557 11.2247C25.6097 11.635 27.0487 12.3966 28.2619 13.4508C29.4751 14.5049 30.4301 15.8235 31.0534 17.305C31.6766 18.7864 31.9515 20.3911 31.8567 21.9956C31.762 23.6 31.3002 25.1612 30.507 26.559C30.141 27.2055 30.189 28.0305 30.7125 28.557L36.6885 34.5675C36.8313 34.7063 36.9451 34.8722 37.0231 35.0554C37.1012 35.2386 37.142 35.4355 37.1431 35.6347C37.1443 35.8338 37.1057 36.0312 37.0298 36.2153C36.9538 36.3994 36.842 36.5665 36.7008 36.7069C36.5596 36.8474 36.3918 36.9582 36.2073 37.0331C36.0228 37.108 35.8252 37.1455 35.626 37.1432C35.4269 37.1409 35.2302 37.099 35.0474 37.0199C34.8647 36.9408 34.6995 36.8261 34.5615 36.6825L28.6065 30.6945C28.0785 30.1635 27.2445 30.114 26.595 30.4875C24.9982 31.4025 23.1889 31.8816 21.3485 31.877C19.5082 31.8724 17.7014 31.3841 16.1092 30.4611C14.517 29.5382 13.1953 28.2129 12.2767 26.6182C11.358 25.0235 10.8747 23.2154 10.875 21.375Z" fill="#767676"/>
</svg>
