<svg xmlns="http://www.w3.org/2000/svg" id="a" width="576" height="278.94" viewBox="0 0 576 278.94"><g><path fill="#000" d="m0,89.54c0-25.34,20.27-46.39,45.48-46.39,14.68,0,27.55,6.89,35.61,17.41l-11.96,9.1c-5.46-7.15-13.51-11.7-23.26-11.7-17.02,0-29.89,14.43-29.89,31.58s12.6,31.45,29.89,31.45c9.75,0,17.8-4.55,23.26-11.7l11.96,9.1c-8.06,10.53-20.92,17.41-35.61,17.41C20.27,135.81,0,114.88,0,89.54Z"/><path fill="#000" d="m149.27,100.2v34.05h-15.07v-33.01c0-9.74-5.85-14.94-12.6-14.94s-15.46,4.03-15.46,15.85v32.1h-15.07V40.55h15.07v42.23c2.99-7.41,12.73-10.79,18.84-10.79,15.59,0,24.3,10.52,24.3,28.2Z"/><path fill="#000" d="m211.17,73.56h15.07v60.69h-15.07v-9.48c-4.03,6.63-12.09,11.05-20.79,11.05-16.24,0-29.24-13.12-29.24-31.97s12.48-31.84,29.63-31.84c8.32,0,16.37,3.64,20.4,10.01v-8.45Zm-.26,30.28c0-10.4-8.58-17.8-17.54-17.8-9.75,0-17.15,8.06-17.15,17.8s7.41,17.93,17.28,17.93c9.36,0,17.41-7.8,17.41-17.93Z"/><path fill="#000" d="m282.65,74.08l-2.99,14.3c-3.51-1.82-6.63-2.21-8.84-2.21-9.88,0-15.33,9.88-15.33,26.9v21.18h-15.21v-60.69h15.08v13c3.25-10.14,9.88-14.55,17.41-14.55,3.64,0,7.54.78,9.88,2.08Z"/><path fill="#000" d="m288.81,52.12c0-5.33,4.55-9.23,9.88-9.23s9.75,3.9,9.75,9.23-4.29,9.23-9.75,9.23-9.88-4.03-9.88-9.23Zm2.34,82.13v-60.69h15.07v60.69h-15.07Z"/><path fill="#000" d="m354.65,73.56v11.96h-12.87v48.73h-15.08v-48.73h-10.91v-11.96h10.91v-22.35h15.08v22.35h12.87Z"/><path fill="#000" d="m408.08,73.56h16.24l-37.69,90.32h-15.86l13.65-33.92-24.17-56.4h16.5l15.72,38.47,15.59-38.47Z"/><path fill="#000" d="m57.18,158.22h15.85v89.53h-14.42l-35.74-60.3v60.3H7.02v-89.53h14.94l35.22,59.78v-59.78Z"/><path fill="#000" d="m137.24,187.06h15.07v60.69h-15.07v-9.48c-4.03,6.63-12.09,11.05-20.79,11.05-16.24,0-29.24-13.12-29.24-31.97s12.48-31.84,29.63-31.84c8.32,0,16.37,3.64,20.4,10.01v-8.45Zm-.26,30.28c0-10.4-8.58-17.8-17.54-17.8-9.75,0-17.15,8.06-17.15,17.8s7.41,17.93,17.28,17.93c9.36,0,17.41-7.8,17.41-17.93Z"/><path fill="#000" d="m209.22,187.06h16.37l-25.6,60.69h-13.77l-25.34-60.69h16.24l16.11,41.58,15.98-41.58Z"/><path fill="#000" d="m231.76,165.62c0-5.33,4.55-9.23,9.88-9.23s9.75,3.9,9.75,9.23-4.29,9.23-9.75,9.23-9.88-4.03-9.88-9.23Zm2.34,82.13v-60.69h15.07v60.69h-15.07Z"/><path fill="#000" d="m311.41,187.06h15.07v52.76c0,27.29-13.25,39.11-34.05,39.11-12.48,0-23.39-6.76-28.72-17.67l12.48-5.72c2.99,5.85,9.62,9.75,16.24,9.75,11.7,0,18.97-6.63,18.97-24.04v-1.43c-4.29,6.24-12.74,9.49-20.14,9.49-15.98,0-29.89-12.61-29.89-31.97s13.78-31.84,29.76-31.84c7.8,0,15.98,3.25,20.27,9.48v-7.93Zm-.26,30.15c0-10.66-8.84-17.67-17.54-17.67-9.36,0-17.02,7.54-17.02,17.67s7.67,18.06,17.02,18.06,17.54-7.41,17.54-18.06Z"/><path fill="#000" d="m388.22,187.06h15.08v60.69h-15.08v-9.48c-4.03,6.63-12.09,11.05-20.79,11.05-16.24,0-29.24-13.12-29.24-31.97s12.48-31.84,29.63-31.84c8.32,0,16.37,3.64,20.4,10.01v-8.45Zm-.26,30.28c0-10.4-8.58-17.8-17.54-17.8-9.74,0-17.15,8.06-17.15,17.8s7.41,17.93,17.28,17.93c9.36,0,17.41-7.8,17.41-17.93Z"/><path fill="#000" d="m452.17,187.06v11.96h-12.87v48.73h-15.07v-48.73h-10.92v-11.96h10.92v-22.35h15.07v22.35h12.87Z"/><path fill="#000" d="m457.48,217.34c0-19.23,14.94-31.84,32.23-31.84s32.36,12.6,32.36,31.84-15.07,31.97-32.36,31.97-32.23-12.74-32.23-31.97Zm49.38,0c0-10.4-7.8-17.8-17.15-17.8s-17.02,7.41-17.02,17.8,7.67,17.93,17.02,17.93,17.15-7.28,17.15-17.93Z"/><path fill="#000" d="m576,187.59l-2.99,14.3c-3.51-1.82-6.63-2.21-8.84-2.21-9.88,0-15.33,9.88-15.33,26.9v21.18h-15.2v-60.69h15.08v13c3.25-10.14,9.88-14.55,17.41-14.55,3.64,0,7.54.78,9.88,2.08Z"/></g><g><circle cx="566.2" cy="80.13" r="9.47" fill="#000"/><circle cx="519.8" cy="126.52" r="9.47" fill="#3f5df5"/><circle cx="473.42" cy="80.13" r="9.47" fill="#89e260"/><path fill="#3f5df5" d="m487.31,30.63c-2.29,2.29-1.4,6.98,2.62,7.43,6.72.76,12.74,3.79,17.25,8.3,4.52,4.52,7.55,10.54,8.31,17.26.13,1.11.58,1.99,1.21,2.62,2.29,2.29,6.97,1.41,7.43-2.62.75-6.73,3.79-12.74,8.3-17.25,4.52-4.52,10.53-7.56,17.26-8.31,1.11-.13,1.98-.57,2.61-1.2,2.29-2.29,1.42-6.98-2.62-7.43-6.72-.76-12.73-3.8-17.25-8.32-4.51-4.51-7.55-10.52-8.31-17.24-.13-1.11-.57-2-1.2-2.63-2.28-2.28-6.98-1.4-7.42,2.63-1.52,13.44-12.12,24.04-25.56,25.56-1.11.13-2,.57-2.63,1.2Z"/></g></svg>